<?xml version="1.0" encoding="utf-8"?>
<!-- Generator: Adobe Illustrator 25.3.1, SVG Export Plug-In . SVG Version: 6.00 Build 0)  -->
<svg version="1.1" xmlns="http://www.w3.org/2000/svg" xmlns:xlink="http://www.w3.org/1999/xlink" x="0px" y="0px"
	 viewBox="0 0 841.9 595.3" style="enable-background:new 0 0 841.9 595.3;" xml:space="preserve">
<style type="text/css">
	.st0{fill:#F9F4F2;}
	.st1{fill:none;stroke:#36A9E1;stroke-width:10;stroke-miterlimit:10;}
	.st2{fill:#36A9E1;}
	.st3{fill:none;stroke:#DADADA;stroke-width:7;stroke-miterlimit:10;}
	.st4{fill:#DADADA;}
	.st5{fill:#DADADA;stroke:#DADADA;stroke-miterlimit:10;}
	.st6{fill:#E30613;}
	.st7{fill:none;stroke:#F3A200;stroke-width:4;stroke-miterlimit:10;}
	.st8{fill:#FFFFFF;stroke:#C6C6C6;stroke-miterlimit:10;}
	.st9{fill:#634E42;}
	.st10{fill:#654796;}
	.st11{fill:#008B8B;}
	.st12{fill:#BE3B6F;}
	.st13{fill:#428ECC;}
	.st14{fill:#F3A200;}
</style>
<g id="Capa_1">
	<rect class="st0" width="841.9" height="595.5"/>
</g>
<g id="Capa_2">
	<path class="st1" d="M623.2,169.7c0,0-15.4,62.9,0,101.7c15.4,38.8,33.7,44.9,14.8,73.4"/>
	<g>
		<path class="st2" d="M558.7,596.1c-0.2-1.7-4.8-42.5,47.4-94.5c34.1-34.1,33.5-51.9,32.6-74.5c-0.4-10-0.8-21.4,1.8-35
			c3.6-19.3,5.1-30,4.8-35.7c-0.1-3.7-0.6-4.1-2.8-5.8c-0.4-0.3-0.9-0.7-1.3-1.1c-4.2-3.5-23.9-27.1-36.2-58.7
			c-16.4-42.2-13.4-82.3,8.6-116c50.3-77,81-144.3,81.3-144.9L704,34c-0.3,0.7-31.4,68.6-82.1,146.3c-20.5,31.3-23.1,67.3-7.7,106.9
			c12.1,31.3,31.1,52.8,33.3,54.6c0.4,0.3,0.8,0.6,1.1,0.9c8,6.3,9.1,11.4,1.6,51.2c-2.4,12.6-2,22.8-1.6,32.8
			c0.9,24,1.7,44.8-35.5,82c-48.4,48.3-44.6,85.8-44.5,86.2L558.7,596.1z"/>
	</g>
	<path class="st3" d="M505.9,29.6c0,0,1,37.8-65.4,105.7L389,300.7"/>
	<polyline class="st3" points="472.3,321.6 392.6,301.2 353.7,301.2 331.8,351.3 290.4,375.8 	"/>
	<g>
		<polygon class="st4" points="339.5,330.1 296.1,281 251.8,317 247.4,311.5 296.9,271.4 344.7,325.4 		"/>
	</g>
	<g>
		<path class="st4" d="M709.9,340.9c-0.2-0.9-0.8-3.6-2-7.3l-2.7-10l-0.2-0.7c-0.2-0.4-10.7-26.3-17-65.4c1-13.4-0.5-29.1-4.6-47.3
			c-0.4-11.1-0.2-22.8,0.7-34.7c5.9-80.3,49.3-135.6,49.8-136.1l-9.4-7.5c-1.9,2.4-46.2,58.6-52.4,142.7c-2.3,31.1,0,59.7,3.8,83.7
			c-1,10-3.5,16.9-6.1,21.6c-5.7,10-13.1,11.8-13.4,11.9l0.1,0l0.2,1.2c-5.4,0.4-11,1.6-16.9,3.6c-45.5,15.8-153.6,57.3-177.7,66.6
			l11.3-29.6l0.1-0.3l0.1-0.3c24.3-123.5,29.6-189.9,29.8-223.9c0.2-36.5-5.2-45.2-6.2-46.6l-5.5,4.3c0.2,0.3,20.5,34.4-24.8,264.6
			l-20.3,53l-104.7,36.8c-3,1.1-5.7,2.9-7.8,5.4l-4.1,4.8l-25.8-38.6l-48-72l-30.7-37l-104.2-60.6l-3.5,6.1l103.1,59.9l29.6,35.6
			l45.9,68.9l-105.9,68.6v31h7V486h3l35.9-20.3l7.7,17.5v17.6c-16.6-2.1-36.1-3.2-51.9-3.7c-15.5-0.6-27.9-0.6-33.9-0.6
			c-4.2,0-7.9,0.1-10.5,0.1c-4.5,0.1-6,0.2-7,2.2l6.3,3.1c-0.6,1.2-1.8,1.7-2.3,1.8c5.8-0.9,83.8-0.7,117.3,7.2
			c-11.2,1.8-20,3.2-21.3,3.3c-2.1,0-26.7,0.6-49.4,7.3c-22.4,6.6-69.3,24.9-69.7,25.1l2.6,6.5c0.5-0.2,47.1-18.4,69.2-24.9
			c22.7-6.7,47.3-7,47.5-7c1.5,0,32.3-5,58-9.2h31.7l9.8,7.6c-2.7,11-12.6,57,8.4,70l2.6,1.6l1.9-2.3c0.4-0.5,6.1-7.6,6.7-23.2
			c0.4,0,0.9,0,1.3,0c5.6,0,14.8-1.7,26-10c15.5-11.4,19.1-12.6,19.9-12.6c2.1,0,2.7,0,16.7-18.8c6.4-8.6,12.7-17.3,12.7-17.4
			l-5.7-4.1C420.7,517.3,409,533,406,536.3c-2.8,0.5-7.8,2.9-22.6,13.8c-11.3,8.3-19.6,8.9-23.3,8.6c-0.6-10.1-3.3-22.8-9.9-38.6
			l59.2-18.4l17.1-35.3l23.5-71.6L456,379c24.2-9.4,141.9-55.2,187.7-71.1c12.8-4.4,23.8-4.1,32.6,1.1c11.7,6.8,17.6,20.5,20.2,28.4
			l68.7,257l11.6-3.1L709.9,340.9z M240.8,514.2C240.8,514.2,240.8,514.2,240.8,514.2c0.1,0,0.1,0,0.1,0
			C240.9,514.2,240.9,514.2,240.8,514.2z M300.2,399.5l10.8,16.1l-41.1,23.2l-7.4-14.9L300.2,399.5z M198.6,479h-1.2v-13l59.1-38.2
			l7.2,14.5L198.6,479z M242.5,462.3l17-9.6l8.8,18.2l-18.9,7.2L242.5,462.3z M266.1,504.7c-4.3-1.1-9.5-2.1-15.1-3v-16.8l26.8-10.2
			l-12.3-25.5l49.2-27.8l10.4,15.5l-34.4,40.6c-0.8,1-1.5,2-2.1,3.1l-10,18.6C276.2,503.8,271.1,506,266.1,504.7z M349.7,581.4
			c-9.9-10.4-7.3-36.9-4-53.4C357.2,558.2,352.6,575,349.7,581.4z M419.9,463.8l-15.6,32.1l-59.3,18.4L333,505h-34.4l-0.6,0
			c-5.4,0.9-11.5,1.9-17.6,2.9c1.7-1.5,3.3-3.2,4.4-5.4l10-18.6c0.4-0.7,0.8-1.3,1.3-1.9l43.2-51c1.3-1.5,2.9-2.6,4.8-3.3l99.1-34.8
			L419.9,463.8z M682.4,298.6c-2.9-1.7-5.8-3-9-3.9c1.8-1.8,3.6-4,5.3-6.7c0.8-1.2,1.5-2.4,2.1-3.7c1.3,5.8,2.7,11.1,4,15.8
			C684.1,299.7,683.3,299.1,682.4,298.6z"/>
		<path class="st4" d="M395.6,552.3c0.1,0.1,8.3,9,7.7,19.9c-0.4,6.5-3.8,12.5-10.3,18l4.5,5.3c8-6.7,12.3-14.5,12.7-23
			c0.8-13.9-9.1-24.6-9.6-25L395.6,552.3z"/>
	</g>
	<polygon class="st5" points="421.7,310.8 417.4,305.4 385.9,330.5 350.8,309.1 347.1,315.1 380.1,335.1 344.3,363.7 334.7,349.3 
		328.9,353.2 370.6,415.7 376.5,411.8 348.2,369.5 	"/>
	<g>
		<path class="st4" d="M350.3,301.5l-14.6-192.2l0-0.2c4.6-74.2,5.2-75.5,5.5-76.2l6.4,2.8c0.1-0.3,0.2-0.5,0.2-0.6
			c-0.6,3.1-3.3,46-5.1,74.2l14.5,191.8L350.3,301.5z"/>
	</g>
	<path class="st3" d="M340.3,124c67.8-2.6,94.6,12.8,100.2,11.3c0,0,0.6,34.2,31.7,63.6"/>
	<path class="st3" d="M370.6,124c0,0-9.7-25.5,0.5-36.3s30.6-43.9,31.7-46s4.6-12.3,4.6-12.3"/>
	<path class="st3" d="M419.5,199.5c0,0,43.6-19.8,71.1,13.9"/>
	<g>
		<path class="st4" d="M324.6,179.5c-10,0-21-1.4-26-6.6c-7.1-7.6-15.8-5.9-16.1-5.9l-1.4-6.8c0.5-0.1,12.8-2.6,22.7,7.9
			c5.4,5.7,27.4,4.9,39.9,3l1,6.9C342.9,178.3,334.2,179.5,324.6,179.5z"/>
	</g>
	<g>
		
			<rect x="142.9" y="211.3" transform="matrix(0.6117 -0.7911 0.7911 0.6117 -97.1929 231.4988)" class="st4" width="88.7" height="7"/>
	</g>
	<g>
		<polygon class="st4" points="223.1,225 194.8,205.3 198.8,199.5 220.9,215 235.5,191.2 250.3,181.8 254,187.7 240.6,196.2 		"/>
	</g>
	<g>
		
			<rect x="347.3" y="211.7" transform="matrix(0.9904 -0.1385 0.1385 0.9904 -26.1362 54.9626)" class="st6" width="69" height="7"/>
	</g>
</g>
<g id="Capa_3">
	<path class="st7" d="M772,594.3c0-4-52.2-195.2-70.8-260c-4.8-16.9-17.4-33.3-34.8-34.9c-20.3-1.8-32.9,4.8-89.4,27.1"/>
</g>
<g id="Capa_4">
	<path class="st8" d="M470,245.9H281.7c-10.7,0-19.3-8.6-19.3-19.3v-3.9c0-10.7,8.6-19.3,19.3-19.3H470c10.7,0,19.3,8.6,19.3,19.3
		v3.9C489.3,237.3,480.6,245.9,470,245.9z"/>
	<g>
		<path class="st9" d="M292.4,232.5h-6.6l0.4-2.4l1.3-0.6l0.5-3h-3.9l-0.5,3l1.1,0.6l-0.4,2.4h-6.6l0.4-2.4l1.4-0.6l1.4-8.6
			l-1.2-0.8l0.4-2.4h6.6l-0.4,2.4l-1.3,0.8l-0.4,2.3h3.9l0.4-2.3l-1-0.8l0.4-2.4h6.6l-0.4,2.4l-1.4,0.8l-1.4,8.6l1.2,0.6
			L292.4,232.5z"/>
		<path class="st9" d="M301.3,232.5h-6.7l0.4-2.4l1.4-0.6l1.4-8.6l-1.2-0.8l0.4-2.4h6.7l-0.4,2.4l-1.4,0.8l-1.4,8.6l1.2,0.6
			L301.3,232.5z"/>
		<path class="st9" d="M310.6,220.8l-0.4,2.5h3.5l-0.5,2.9h-3.5l-0.5,2.9h2.6l0.7-1.4h2.4l-0.7,4.6h-10.9l0.4-2.4l1.4-0.6l1.4-8.6
			l-1.2-0.8l0.4-2.4h5.4h5.2l-0.7,4.5h-2.2l-0.3-1.3H310.6z"/>
		<path class="st9" d="M322.2,232.5h-6.2l0.4-2.4l1.4-0.6l1.4-8.6l-1.2-0.8l0.4-2.4h5.5l3,7.6l0.7-4.4l-1-0.8l0.4-2.4h6.3l-0.4,2.4
			l-1.4,0.8l-1.8,11.6h-4.2l-2.9-7.5l-0.7,4.4l1.1,0.6L322.2,232.5z"/>
		<path class="st9" d="M339.9,217.6h1.2c1.7,0,3.1,0.5,4.1,1.4s1.5,2.3,1.5,4.2c0,1.5-0.2,2.8-0.6,4c-0.4,1.2-1,2.1-1.7,2.9
			c-0.7,0.8-1.6,1.4-2.6,1.8c-1,0.4-2.1,0.6-3.3,0.6h-6.3l0.4-2.4l1.4-0.6l1.4-8.6l-1.2-0.8l0.4-2.4H339.9z M338.1,229.2h1
			c0.6,0,1.1-0.2,1.5-0.6s0.8-0.9,1-1.5c0.3-0.6,0.4-1.3,0.6-2s0.2-1.4,0.2-2.1c0-0.7-0.1-1.3-0.3-1.7c-0.2-0.4-0.7-0.6-1.4-0.6
			h-1.2L338.1,229.2z"/>
		<path class="st9" d="M354.8,220.8l-0.4,2.5h3.5l-0.5,2.9H354l-0.5,2.9h2.6l0.7-1.4h2.4l-0.7,4.6h-10.9l0.4-2.4l1.4-0.6l1.4-8.6
			l-1.2-0.8l0.4-2.4h5.4h5.2l-0.7,4.5h-2.2l-0.3-1.3H354.8z"/>
		<path class="st9" d="M366.2,229.2h2l0.9-2.3h2.4l-0.9,5.6h-10.4l0.4-2.4l1.4-0.6l1.4-8.6l-1.2-0.8l0.4-2.4h6.7L369,220l-1.4,0.8
			L366.2,229.2z"/>
		<path class="st9" d="M385.4,229.6l1.1,0.5l-0.4,2.4h-7l0.4-2.4l1.3-0.6l-0.1-0.8H377l-0.4,0.8l1.2,0.5l-0.4,2.4h-6.6l0.4-2.4
			l1.4-0.6l6.2-11.9h4.4L385.4,229.6z M380.1,223.6l0-2l-0.8,2l-1,2.3h2L380.1,223.6z"/>
		<path class="st9" d="M394.5,220.8l-0.4,2.5h3.5l-0.5,2.9h-3.5l-0.5,2.9h2.6l0.7-1.4h2.4l-0.7,4.6h-10.9l0.4-2.4l1.4-0.6l1.4-8.6
			l-1.2-0.8l0.4-2.4h5.4h5.2l-0.7,4.5h-2.2l-0.3-1.3H394.5z"/>
		<path class="st9" d="M406.1,232.5h-6.2l0.4-2.4l1.4-0.6l1.4-8.6l-1.2-0.8l0.4-2.4h5.5l3,7.6l0.7-4.4l-1-0.8l0.4-2.4h6.3l-0.4,2.4
			l-1.4,0.8l-1.8,11.6H409l-2.9-7.5l-0.7,4.4l1.1,0.6L406.1,232.5z"/>
		<path class="st9" d="M426.9,221c-0.2-0.1-0.4-0.1-0.7-0.2c-0.3-0.1-0.6-0.1-1-0.1c-0.6,0-1.2,0.2-1.6,0.5
			c-0.4,0.3-0.8,0.8-1.1,1.3c-0.3,0.5-0.5,1.2-0.6,1.8c-0.1,0.7-0.2,1.3-0.2,2c0,1,0.2,1.7,0.7,2.1c0.4,0.5,1,0.7,1.6,0.7
			c0.8,0,1.5-0.1,2-0.4c0.6-0.3,1.1-0.6,1.5-0.9l1.5,2.3c-0.2,0.2-0.6,0.5-0.9,0.8s-0.8,0.6-1.4,0.9c-0.5,0.3-1.1,0.5-1.7,0.7
			c-0.6,0.2-1.3,0.3-2,0.3c-0.8,0-1.6-0.1-2.3-0.4s-1.3-0.6-1.8-1.1c-0.5-0.5-0.9-1.1-1.2-1.8c-0.3-0.7-0.4-1.5-0.4-2.4
			c0-1.4,0.2-2.8,0.6-4c0.4-1.2,1-2.3,1.7-3.1c0.7-0.9,1.6-1.6,2.6-2c1-0.5,2.1-0.7,3.4-0.7c0.7,0,1.3,0.1,1.9,0.2
			c0.6,0.1,1.1,0.2,1.5,0.3c0.5,0.1,0.9,0.3,1.4,0.5l-0.7,4.4h-2.3L426.9,221z"/>
		<path class="st9" d="M436.4,232.5h-6.7l0.4-2.4l1.4-0.6l1.4-8.6l-1.2-0.8l0.4-2.4h6.7l-0.4,2.4l-1.4,0.8l-1.4,8.6l1.2,0.6
			L436.4,232.5z"/>
		<path class="st9" d="M444.7,232.5h-6.2l0.4-2.4l1.4-0.6l1.4-8.6l-1.2-0.8l0.4-2.4h5.5l3,7.6l0.7-4.4l-1-0.8l0.4-2.4h6.3l-0.4,2.4
			l-1.4,0.8l-1.8,11.6h-4.2l-2.9-7.5l-0.7,4.4l1.1,0.6L444.7,232.5z"/>
		<path class="st9" d="M467.9,229.6l1.1,0.5l-0.4,2.4h-7l0.4-2.4l1.3-0.6l-0.1-0.8h-3.7l-0.4,0.8l1.2,0.5l-0.4,2.4h-6.6l0.4-2.4
			l1.4-0.6l6.2-11.9h4.4L467.9,229.6z M462.6,223.6l0-2l-0.8,2l-1,2.3h2L462.6,223.6z"/>
	</g>
	<g>
		<path class="st10" d="M456.7,409.3c-0.2,0-0.4-0.1-0.6-0.1c-0.2,0-0.5-0.1-0.9-0.1c-0.6,0-1,0.1-1.4,0.4c-0.4,0.3-0.7,0.7-0.9,1.1
			s-0.4,1-0.5,1.6c-0.1,0.6-0.2,1.1-0.2,1.7c0,0.8,0.2,1.4,0.6,1.8c0.4,0.4,0.8,0.6,1.4,0.6c0.7,0,1.3-0.1,1.8-0.4s0.9-0.5,1.3-0.7
			l1.3,2c-0.2,0.2-0.5,0.4-0.8,0.6s-0.7,0.5-1.2,0.7c-0.4,0.2-0.9,0.4-1.5,0.6c-0.5,0.2-1.1,0.2-1.7,0.2c-0.7,0-1.4-0.1-2-0.3
			s-1.1-0.6-1.6-1c-0.4-0.4-0.8-0.9-1-1.5c-0.2-0.6-0.4-1.3-0.4-2c0-1.2,0.2-2.4,0.5-3.4s0.8-1.9,1.4-2.7c0.6-0.7,1.4-1.3,2.2-1.7
			c0.9-0.4,1.8-0.6,2.9-0.6c0.6,0,1.1,0,1.6,0.1c0.5,0.1,0.9,0.2,1.3,0.3c0.4,0.1,0.8,0.3,1.2,0.4l-0.6,3.8H457L456.7,409.3z"/>
		<path class="st10" d="M470.1,417.1l-0.3,2h-4.3l0.5-2c-0.3,0.4-0.6,0.8-1,1.1c-0.3,0.3-0.7,0.5-1.2,0.8c-0.5,0.2-1,0.4-1.5,0.4
			c-0.5,0-0.9-0.1-1.2-0.3c-0.3-0.2-0.6-0.4-0.8-0.7c-0.2-0.3-0.4-0.7-0.5-1.1c-0.1-0.4-0.2-0.8-0.2-1.3c0-1.2,0.2-2.2,0.5-3
			c0.3-0.9,0.7-1.6,1.2-2.1c0.5-0.6,1.1-1,1.8-1.3s1.4-0.4,2.1-0.4c0.3,0,0.6,0,0.9,0.1c0.3,0.1,0.5,0.2,0.7,0.3
			c0.2,0.1,0.4,0.2,0.6,0.3l0.4-0.5h2.2l-1.2,7.6L470.1,417.1z M466.4,411.8c-0.1,0-0.2-0.1-0.3-0.1c-0.1,0-0.2,0-0.3-0.1
			s-0.3,0-0.4,0c-0.4,0-0.7,0.1-1,0.4c-0.3,0.3-0.5,0.6-0.7,1c-0.2,0.4-0.3,0.8-0.4,1.3s-0.1,0.9-0.1,1.3c0,0.3,0.1,0.6,0.2,0.8
			c0.1,0.2,0.3,0.3,0.5,0.3c0.2,0,0.4-0.1,0.5-0.2c0.2-0.1,0.3-0.2,0.5-0.4c0.1-0.2,0.3-0.4,0.4-0.6s0.2-0.5,0.3-0.7
			c0.2-0.6,0.4-1.2,0.6-1.9L466.4,411.8z"/>
		<path class="st10" d="M473.4,416.7c0.1,0,0.2,0.1,0.3,0.1c0.2,0.1,0.5,0.1,0.8,0.1c0.4,0,0.6-0.1,0.8-0.2s0.3-0.3,0.3-0.4
			c0-0.2-0.1-0.4-0.3-0.5c-0.2-0.2-0.4-0.3-0.7-0.5c-0.3-0.2-0.6-0.3-0.9-0.5c-0.3-0.2-0.6-0.4-0.9-0.6c-0.3-0.2-0.5-0.5-0.7-0.8
			c-0.2-0.3-0.3-0.7-0.3-1.1c0-0.6,0.1-1.1,0.3-1.5c0.2-0.4,0.5-0.7,0.9-1c0.4-0.3,0.9-0.5,1.4-0.6c0.5-0.1,1.1-0.2,1.8-0.2
			c0.5,0,0.9,0,1.3,0.1c0.4,0.1,0.8,0.1,1.1,0.2c0.4,0.1,0.7,0.2,1,0.3l-0.6,3h-1.9l-0.1-0.9c-0.1,0-0.2,0-0.3-0.1
			c-0.1,0-0.2,0-0.3-0.1c-0.1,0-0.2,0-0.4,0c-0.3,0-0.5,0.1-0.6,0.2c-0.1,0.1-0.2,0.3-0.2,0.4c0,0.2,0.1,0.4,0.3,0.5
			c0.2,0.1,0.4,0.3,0.7,0.4c0.3,0.1,0.6,0.3,0.9,0.4c0.3,0.2,0.6,0.4,0.9,0.6c0.3,0.2,0.5,0.5,0.7,0.8c0.2,0.3,0.3,0.7,0.3,1.1
			c0,0.6-0.1,1.1-0.4,1.5c-0.2,0.4-0.6,0.8-1,1.1c-0.4,0.3-0.9,0.5-1.5,0.6c-0.6,0.1-1.2,0.2-1.9,0.2c-0.5,0-0.9,0-1.3-0.1
			c-0.4,0-0.8-0.1-1.1-0.2c-0.4-0.1-0.8-0.1-1.1-0.2l0.5-3.1h2L473.4,416.7z"/>
		<path class="st10" d="M491.5,417.1l-0.3,2H487l0.5-2c-0.3,0.4-0.6,0.8-1,1.1c-0.3,0.3-0.7,0.5-1.2,0.8c-0.5,0.2-1,0.4-1.5,0.4
			c-0.5,0-0.9-0.1-1.2-0.3c-0.3-0.2-0.6-0.4-0.8-0.7c-0.2-0.3-0.4-0.7-0.5-1.1c-0.1-0.4-0.2-0.8-0.2-1.3c0-1.2,0.2-2.2,0.5-3
			c0.3-0.9,0.7-1.6,1.2-2.1c0.5-0.6,1.1-1,1.8-1.3s1.4-0.4,2.1-0.4c0.3,0,0.6,0,0.9,0.1c0.3,0.1,0.5,0.2,0.7,0.3
			c0.2,0.1,0.4,0.2,0.6,0.3l0.4-0.5h2.2l-1.2,7.6L491.5,417.1z M487.8,411.8c-0.1,0-0.2-0.1-0.3-0.1c-0.1,0-0.2,0-0.3-0.1
			s-0.3,0-0.4,0c-0.4,0-0.7,0.1-1,0.4c-0.3,0.3-0.5,0.6-0.7,1c-0.2,0.4-0.3,0.8-0.4,1.3s-0.1,0.9-0.1,1.3c0,0.3,0.1,0.6,0.2,0.8
			c0.1,0.2,0.3,0.3,0.5,0.3c0.2,0,0.4-0.1,0.5-0.2c0.2-0.1,0.3-0.2,0.5-0.4c0.1-0.2,0.3-0.4,0.4-0.6s0.2-0.5,0.3-0.7
			c0.2-0.6,0.4-1.2,0.6-1.9L487.8,411.8z"/>
		<path class="st10" d="M500.3,416.1c0.1,0.1,0.2,0.1,0.4,0.2c0.1,0,0.3,0.1,0.5,0.1c0.2,0,0.4,0,0.7,0c0.2,0,0.4,0,0.6-0.1
			c0.2,0,0.3-0.1,0.5-0.2c0.1-0.1,0.3-0.2,0.3-0.3c0.1-0.1,0.1-0.3,0.1-0.5c0-0.2-0.1-0.4-0.3-0.6c-0.2-0.2-0.5-0.3-0.9-0.5
			c-0.3-0.2-0.7-0.4-1.1-0.5c-0.4-0.2-0.8-0.4-1.1-0.7c-0.3-0.3-0.6-0.6-0.9-1c-0.2-0.4-0.3-0.9-0.3-1.4c0-0.7,0.1-1.4,0.4-1.9
			c0.3-0.6,0.6-1,1.1-1.4c0.5-0.4,1-0.7,1.6-0.9c0.6-0.2,1.3-0.3,2.1-0.3c0.6,0,1.1,0,1.6,0.1s0.9,0.2,1.3,0.3
			c0.4,0.1,0.8,0.2,1.1,0.4l-0.6,3.5h-1.9l-0.2-1.1c-0.1,0-0.3-0.1-0.4-0.1c-0.1,0-0.3,0-0.4-0.1c-0.2,0-0.3,0-0.5,0
			c-0.4,0-0.7,0.1-0.9,0.2c-0.3,0.1-0.4,0.4-0.4,0.7c0,0.2,0.1,0.4,0.3,0.6c0.2,0.2,0.5,0.3,0.9,0.5c0.3,0.2,0.7,0.3,1.1,0.5
			c0.4,0.2,0.8,0.4,1.1,0.7c0.3,0.3,0.6,0.6,0.9,1c0.2,0.4,0.3,0.8,0.3,1.4c0,0.8-0.1,1.5-0.4,2.1c-0.3,0.6-0.7,1.1-1.2,1.5
			c-0.5,0.4-1.1,0.7-1.7,1c-0.7,0.2-1.4,0.3-2.1,0.3c-0.5,0-1,0-1.5-0.1c-0.5-0.1-1-0.1-1.3-0.2c-0.5-0.1-0.9-0.2-1.3-0.3l0.6-3.8
			h2.1L500.3,416.1z"/>
		<path class="st10" d="M519.6,417.1l-0.3,2h-4.3l0.5-2c-0.3,0.4-0.6,0.8-1,1.1c-0.3,0.3-0.7,0.5-1.2,0.8c-0.5,0.2-1,0.4-1.5,0.4
			c-0.5,0-0.9-0.1-1.2-0.3c-0.3-0.2-0.6-0.4-0.8-0.7c-0.2-0.3-0.4-0.7-0.5-1.1c-0.1-0.4-0.2-0.8-0.2-1.3c0-1.2,0.2-2.2,0.5-3
			c0.3-0.9,0.7-1.6,1.2-2.1c0.5-0.6,1.1-1,1.8-1.3s1.4-0.4,2.1-0.4c0.3,0,0.6,0,0.9,0.1c0.3,0.1,0.5,0.2,0.7,0.3
			c0.2,0.1,0.4,0.2,0.6,0.3l0.4-0.5h2.2l-1.2,7.6L519.6,417.1z M515.8,411.8c-0.1,0-0.2-0.1-0.3-0.1c-0.1,0-0.2,0-0.3-0.1
			s-0.3,0-0.4,0c-0.4,0-0.7,0.1-1,0.4c-0.3,0.3-0.5,0.6-0.7,1c-0.2,0.4-0.3,0.8-0.4,1.3s-0.1,0.9-0.1,1.3c0,0.3,0.1,0.6,0.2,0.8
			c0.1,0.2,0.3,0.3,0.5,0.3c0.2,0,0.4-0.1,0.5-0.2c0.2-0.1,0.3-0.2,0.5-0.4c0.1-0.2,0.3-0.4,0.4-0.6s0.2-0.5,0.3-0.7
			c0.2-0.6,0.4-1.2,0.6-1.9L515.8,411.8z"/>
		<path class="st10" d="M522.8,407.5l-1.2-0.4l0.3-2h4.6l-0.9,4.6l-0.5,1.7c0.3-0.4,0.6-0.8,0.9-1.2c0.3-0.3,0.7-0.6,1.1-0.8
			s0.9-0.4,1.5-0.4c0.4,0,0.8,0.1,1.2,0.3c0.3,0.2,0.6,0.4,0.8,0.7c0.2,0.3,0.4,0.7,0.5,1.1s0.2,0.9,0.2,1.3c0,1.1-0.2,2.1-0.5,3
			c-0.3,0.9-0.8,1.6-1.4,2.1c-0.6,0.6-1.2,1-2,1.3c-0.7,0.3-1.5,0.4-2.3,0.4c-0.5,0-1.1,0-1.6-0.1s-1-0.1-1.4-0.2
			c-0.5-0.1-0.9-0.2-1.3-0.3L522.8,407.5z M524.9,416.6c0.1,0,0.2,0,0.3,0.1c0.1,0,0.2,0,0.3,0.1c0.1,0,0.2,0,0.3,0
			c0.4,0,0.7-0.1,0.9-0.4s0.5-0.6,0.7-0.9c0.2-0.4,0.3-0.8,0.4-1.2c0.1-0.4,0.1-0.8,0.1-1.2c0-0.3-0.1-0.6-0.2-0.8
			c-0.1-0.2-0.3-0.4-0.6-0.4c-0.2,0-0.3,0.1-0.5,0.2c-0.2,0.1-0.3,0.2-0.4,0.4s-0.2,0.4-0.4,0.6c-0.1,0.2-0.2,0.4-0.3,0.7
			c-0.2,0.5-0.4,1.2-0.5,1.8L524.9,416.6z"/>
		<path class="st10" d="M538.6,409.1c1.3,0,2.4,0.3,3,0.9c0.7,0.6,1,1.5,1,2.7c0,1-0.1,1.9-0.4,2.7c-0.3,0.8-0.7,1.5-1.2,2.1
			s-1.1,1-1.8,1.3c-0.7,0.3-1.5,0.5-2.4,0.5c-1.4,0-2.4-0.3-3.1-0.9c-0.7-0.6-1-1.5-1-2.7c0-1,0.1-1.9,0.4-2.7
			c0.3-0.8,0.7-1.5,1.2-2.1s1.1-1,1.8-1.3C536.9,409.2,537.7,409.1,538.6,409.1z M538.2,411.8c-0.3,0-0.5,0.1-0.8,0.3
			c-0.2,0.2-0.4,0.5-0.6,0.8s-0.3,0.7-0.4,1.2c-0.1,0.5-0.2,0.9-0.2,1.4c0,0.4,0.1,0.6,0.2,0.9c0.1,0.2,0.4,0.3,0.8,0.3
			c0.3,0,0.5-0.1,0.7-0.3s0.4-0.5,0.6-0.8c0.2-0.3,0.3-0.7,0.4-1.2c0.1-0.5,0.1-0.9,0.1-1.4c0-0.4-0.1-0.6-0.2-0.9
			C538.8,411.9,538.6,411.8,538.2,411.8z"/>
		<path class="st10" d="M550.5,411.9c-0.1,0-0.3,0.1-0.5,0.2c-0.2,0.1-0.4,0.4-0.6,0.7c-0.2,0.3-0.4,0.8-0.6,1.3
			c-0.2,0.5-0.3,1.2-0.5,1.9l-0.5,3.1h-3.4l1.2-7.7l-1.2-0.4l0.3-1.7h4.7l-0.4,2.3c0,0,0.1-0.2,0.3-0.4c0.2-0.3,0.4-0.5,0.7-0.8
			c0.3-0.3,0.6-0.6,1-0.9c0.4-0.3,0.8-0.4,1.3-0.4c0.2,0,0.3,0,0.4,0c0.1,0,0.3,0.1,0.4,0.1c0.1,0,0.2,0.1,0.3,0.1l-0.9,4.3h-1.9
			V411.9z"/>
		<path class="st10" d="M554.3,411.7l-1.1-0.3l0.3-2.1h4.2l0.9,5.1l0.1,1l1.6-3.8l-0.9-0.2l0.3-2.1h5.1l-0.3,2l-0.8,0.3l-3.7,7.6
			c-0.4,0.8-0.7,1.5-1.1,2c-0.3,0.5-0.7,1-1.1,1.3c-0.4,0.3-0.8,0.6-1.3,0.7c-0.5,0.1-1,0.2-1.6,0.2c-0.3,0-0.6,0-0.9-0.1
			s-0.6-0.1-0.8-0.1c-0.3-0.1-0.6-0.1-0.8-0.2l0.7-2.4c0.1,0,0.3,0,0.4,0c0.1,0,0.3,0,0.4,0c0.2,0,0.3,0,0.5,0c0.3,0,0.5,0,0.7,0
			c0.2,0,0.4-0.1,0.5-0.2c0.1-0.1,0.3-0.2,0.4-0.4c0.1-0.2,0.2-0.4,0.4-0.6L554.3,411.7z"/>
	</g>
	<g>
		<path class="st11" d="M295.6,427.8h-5.2l0.3-2.1l1.2-0.5l1.2-7.4l-1-0.7l0.3-2h5l1.3,4.9l2.9-4.9h4.8l-0.3,2.1l-1.2,0.7l-1.2,7.4
			l1,0.5l-0.3,2.1H299l0.3-2.1l1.1-0.5l0.7-4.2l-2.1,3.6h-2.4l-0.9-3.4l-0.6,4l0.9,0.5L295.6,427.8z"/>
		<path class="st11" d="M316,420.5c0,0.5-0.1,1-0.4,1.4c-0.2,0.4-0.6,0.8-1.1,1.1s-1.1,0.6-1.9,0.7c-0.8,0.2-1.7,0.3-2.7,0.3
			c0,0.4,0.2,0.7,0.4,0.9s0.6,0.3,1,0.3c0.4,0,0.8-0.1,1.3-0.2c0.4-0.1,0.9-0.2,1.2-0.4l1,1.8c-0.3,0.2-0.6,0.4-0.9,0.5
			c-0.3,0.2-0.7,0.3-1.1,0.5c-0.4,0.1-0.8,0.2-1.2,0.3s-0.8,0.1-1.3,0.1c-0.6,0-1.1-0.1-1.6-0.2c-0.5-0.2-0.9-0.4-1.2-0.7
			s-0.6-0.7-0.8-1.1c-0.2-0.4-0.3-1-0.3-1.5c0-1,0.1-2,0.5-2.8c0.3-0.8,0.7-1.5,1.2-2.1s1.1-1,1.8-1.3c0.7-0.3,1.4-0.5,2.2-0.5
			c1.2,0,2.2,0.3,2.8,0.7C315.6,418.9,316,419.6,316,420.5z M312.5,421c0-0.4-0.2-0.6-0.7-0.6c-0.4,0-0.8,0.2-1,0.5
			c-0.3,0.3-0.5,0.7-0.6,1.2c0.5,0,0.9,0,1.2-0.1c0.3-0.1,0.5-0.2,0.7-0.3c0.2-0.1,0.3-0.2,0.3-0.3S312.5,421.1,312.5,421z"/>
		<path class="st11" d="M318.8,425.3c0.1,0,0.2,0.1,0.3,0.1c0.2,0.1,0.5,0.1,0.8,0.1c0.4,0,0.6-0.1,0.8-0.2s0.3-0.3,0.3-0.4
			c0-0.2-0.1-0.4-0.3-0.5c-0.2-0.2-0.4-0.3-0.7-0.5c-0.3-0.2-0.6-0.3-0.9-0.5c-0.3-0.2-0.6-0.4-0.9-0.6c-0.3-0.2-0.5-0.5-0.7-0.8
			c-0.2-0.3-0.3-0.7-0.3-1.1c0-0.6,0.1-1.1,0.3-1.5c0.2-0.4,0.5-0.7,0.9-1c0.4-0.3,0.9-0.5,1.4-0.6c0.5-0.1,1.1-0.2,1.8-0.2
			c0.5,0,0.9,0,1.3,0.1c0.4,0.1,0.8,0.1,1.1,0.2c0.4,0.1,0.7,0.2,1,0.3l-0.6,3h-1.9l-0.1-0.9c-0.1,0-0.2,0-0.3-0.1
			c-0.1,0-0.2,0-0.3-0.1c-0.1,0-0.2,0-0.4,0c-0.3,0-0.5,0.1-0.6,0.2c-0.1,0.1-0.2,0.3-0.2,0.4c0,0.2,0.1,0.4,0.3,0.5
			c0.2,0.1,0.4,0.3,0.7,0.4c0.3,0.1,0.6,0.3,0.9,0.4c0.3,0.2,0.6,0.4,0.9,0.6c0.3,0.2,0.5,0.5,0.7,0.8c0.2,0.3,0.3,0.7,0.3,1.1
			c0,0.6-0.1,1.1-0.4,1.5c-0.2,0.4-0.6,0.8-1,1.1c-0.4,0.3-0.9,0.5-1.5,0.6c-0.6,0.1-1.2,0.2-1.9,0.2c-0.5,0-0.9,0-1.3-0.1
			c-0.4,0-0.8-0.1-1.1-0.2c-0.4-0.1-0.8-0.1-1.1-0.2l0.5-3.1h2L318.8,425.3z"/>
		<path class="st11" d="M332.3,417.7c1.3,0,2.4,0.3,3,0.9c0.7,0.6,1,1.5,1,2.7c0,1-0.1,1.9-0.4,2.7c-0.3,0.8-0.7,1.5-1.2,2.1
			s-1.1,1-1.8,1.3c-0.7,0.3-1.5,0.5-2.4,0.5c-1.4,0-2.4-0.3-3.1-0.9c-0.7-0.6-1-1.5-1-2.7c0-1,0.1-1.9,0.4-2.7
			c0.3-0.8,0.7-1.5,1.2-2.1s1.1-1,1.8-1.3C330.6,417.8,331.4,417.7,332.3,417.7z M330.5,416.9l-0.7-1.8l5.5-2.9l0.8,2.6L330.5,416.9
			z M331.9,420.4c-0.3,0-0.5,0.1-0.8,0.3c-0.2,0.2-0.4,0.5-0.6,0.8s-0.3,0.7-0.4,1.2c-0.1,0.5-0.2,0.9-0.2,1.4
			c0,0.4,0.1,0.6,0.2,0.9c0.1,0.2,0.4,0.3,0.8,0.3c0.3,0,0.5-0.1,0.7-0.3s0.4-0.5,0.6-0.8c0.2-0.3,0.3-0.7,0.4-1.2
			c0.1-0.5,0.1-0.9,0.1-1.4c0-0.4-0.1-0.6-0.2-0.9C332.5,420.5,332.3,420.4,331.9,420.4z"/>
		<path class="st11" d="M343,418l-0.4,2.3c0,0,0.1-0.2,0.3-0.4c0.2-0.3,0.4-0.5,0.7-0.8c0.3-0.3,0.7-0.6,1.1-0.9s0.9-0.4,1.4-0.4
			c0.7,0,1.2,0.2,1.5,0.6s0.5,0.9,0.5,1.6c0,0.2,0,0.3,0,0.5c0,0.2,0,0.4-0.1,0.6l-0.7,4.5l1.2,0.3l-0.3,2h-4.6l1-6
			c0-0.2,0.1-0.3,0.1-0.5c0-0.2,0-0.3-0.1-0.4c-0.1-0.1-0.2-0.2-0.3-0.2c-0.2,0-0.4,0.1-0.5,0.3c-0.2,0.2-0.4,0.4-0.5,0.8
			c-0.2,0.3-0.3,0.7-0.5,1.1c-0.1,0.4-0.3,0.8-0.4,1.2l-0.7,3.9h-3.4l1.2-7.5l-1.2-0.4l0.3-2H343z"/>
		<path class="st11" d="M357.5,424.8c0.1,0.1,0.2,0.1,0.4,0.2c0.1,0,0.3,0.1,0.5,0.1c0.2,0,0.4,0,0.7,0c0.2,0,0.4,0,0.6-0.1
			c0.2,0,0.3-0.1,0.5-0.2c0.1-0.1,0.3-0.2,0.3-0.3c0.1-0.1,0.1-0.3,0.1-0.5c0-0.2-0.1-0.4-0.3-0.6c-0.2-0.2-0.5-0.3-0.9-0.5
			c-0.3-0.2-0.7-0.4-1.1-0.5c-0.4-0.2-0.8-0.4-1.1-0.7c-0.3-0.3-0.6-0.6-0.9-1c-0.2-0.4-0.3-0.9-0.3-1.4c0-0.7,0.1-1.4,0.4-1.9
			c0.3-0.6,0.6-1,1.1-1.4c0.5-0.4,1-0.7,1.6-0.9c0.6-0.2,1.3-0.3,2.1-0.3c0.6,0,1.1,0,1.6,0.1s0.9,0.2,1.3,0.3
			c0.4,0.1,0.8,0.2,1.1,0.4l-0.6,3.5h-1.9l-0.2-1.1c-0.1,0-0.3-0.1-0.4-0.1c-0.1,0-0.3,0-0.4-0.1c-0.2,0-0.3,0-0.5,0
			c-0.4,0-0.7,0.1-0.9,0.2c-0.3,0.1-0.4,0.4-0.4,0.7c0,0.2,0.1,0.4,0.3,0.6c0.2,0.2,0.5,0.3,0.9,0.5c0.3,0.2,0.7,0.3,1.1,0.5
			c0.4,0.2,0.8,0.4,1.1,0.7c0.3,0.3,0.6,0.6,0.9,1c0.2,0.4,0.3,0.8,0.3,1.4c0,0.8-0.1,1.5-0.4,2.1c-0.3,0.6-0.7,1.1-1.2,1.5
			c-0.5,0.4-1.1,0.7-1.7,1c-0.7,0.2-1.4,0.3-2.1,0.3c-0.5,0-1,0-1.5-0.1c-0.5-0.1-1-0.1-1.3-0.2c-0.5-0.1-0.9-0.2-1.3-0.3l0.6-3.8
			h2.1L357.5,424.8z"/>
		<path class="st11" d="M376.8,425.7l-0.3,2h-4.3l0.5-2c-0.3,0.4-0.6,0.8-1,1.1c-0.3,0.3-0.7,0.5-1.2,0.8c-0.5,0.2-1,0.4-1.5,0.4
			c-0.5,0-0.9-0.1-1.2-0.3c-0.3-0.2-0.6-0.4-0.8-0.7c-0.2-0.3-0.4-0.7-0.5-1.1c-0.1-0.4-0.2-0.8-0.2-1.3c0-1.2,0.2-2.2,0.5-3
			c0.3-0.9,0.7-1.6,1.2-2.1c0.5-0.6,1.1-1,1.8-1.3s1.4-0.4,2.1-0.4c0.3,0,0.6,0,0.9,0.1c0.3,0.1,0.5,0.2,0.7,0.3
			c0.2,0.1,0.4,0.2,0.6,0.3l0.4-0.5h2.2l-1.2,7.6L376.8,425.7z M373,420.4c-0.1,0-0.2-0.1-0.3-0.1c-0.1,0-0.2,0-0.3-0.1
			s-0.3,0-0.4,0c-0.4,0-0.7,0.1-1,0.4c-0.3,0.3-0.5,0.6-0.7,1c-0.2,0.4-0.3,0.8-0.4,1.3s-0.1,0.9-0.1,1.3c0,0.3,0.1,0.6,0.2,0.8
			c0.1,0.2,0.3,0.3,0.5,0.3c0.2,0,0.4-0.1,0.5-0.2c0.2-0.1,0.3-0.2,0.5-0.4c0.1-0.2,0.3-0.4,0.4-0.6s0.2-0.5,0.3-0.7
			c0.2-0.6,0.4-1.2,0.6-1.9L373,420.4z"/>
		<path class="st11" d="M380,416.2l-1.2-0.4l0.3-2h4.6l-0.9,4.6l-0.5,1.7c0.3-0.4,0.6-0.8,0.9-1.2c0.3-0.3,0.7-0.6,1.1-0.8
			s0.9-0.4,1.5-0.4c0.4,0,0.8,0.1,1.2,0.3c0.3,0.2,0.6,0.4,0.8,0.7c0.2,0.3,0.4,0.7,0.5,1.1s0.2,0.9,0.2,1.3c0,1.1-0.2,2.1-0.5,3
			c-0.3,0.9-0.8,1.6-1.4,2.1c-0.6,0.6-1.2,1-2,1.3c-0.7,0.3-1.5,0.4-2.3,0.4c-0.5,0-1.1,0-1.6-0.1s-1-0.1-1.4-0.2
			c-0.5-0.1-0.9-0.2-1.3-0.3L380,416.2z M382,425.2c0.1,0,0.2,0,0.3,0.1c0.1,0,0.2,0,0.3,0.1c0.1,0,0.2,0,0.3,0
			c0.4,0,0.7-0.1,0.9-0.4s0.5-0.6,0.7-0.9c0.2-0.4,0.3-0.8,0.4-1.2c0.1-0.4,0.1-0.8,0.1-1.2c0-0.3-0.1-0.6-0.2-0.8
			c-0.1-0.2-0.3-0.4-0.6-0.4c-0.2,0-0.3,0.1-0.5,0.2c-0.2,0.1-0.3,0.2-0.4,0.4s-0.2,0.4-0.4,0.6c-0.1,0.2-0.2,0.4-0.3,0.7
			c-0.2,0.5-0.4,1.2-0.5,1.8L382,425.2z"/>
		<path class="st11" d="M395.7,417.7c1.3,0,2.4,0.3,3,0.9c0.7,0.6,1,1.5,1,2.7c0,1-0.1,1.9-0.4,2.7c-0.3,0.8-0.7,1.5-1.2,2.1
			s-1.1,1-1.8,1.3c-0.7,0.3-1.5,0.5-2.4,0.5c-1.4,0-2.4-0.3-3.1-0.9c-0.7-0.6-1-1.5-1-2.7c0-1,0.1-1.9,0.4-2.7
			c0.3-0.8,0.7-1.5,1.2-2.1s1.1-1,1.8-1.3C394.1,417.8,394.9,417.7,395.7,417.7z M395.3,420.4c-0.3,0-0.5,0.1-0.8,0.3
			c-0.2,0.2-0.4,0.5-0.6,0.8s-0.3,0.7-0.4,1.2c-0.1,0.5-0.2,0.9-0.2,1.4c0,0.4,0.1,0.6,0.2,0.9c0.1,0.2,0.4,0.3,0.8,0.3
			c0.3,0,0.5-0.1,0.7-0.3s0.4-0.5,0.6-0.8c0.2-0.3,0.3-0.7,0.4-1.2c0.1-0.5,0.1-0.9,0.1-1.4c0-0.4-0.1-0.6-0.2-0.9
			C396,420.5,395.7,420.4,395.3,420.4z"/>
		<path class="st11" d="M407.6,420.5c-0.1,0-0.3,0.1-0.5,0.2c-0.2,0.1-0.4,0.4-0.6,0.7c-0.2,0.3-0.4,0.8-0.6,1.3
			c-0.2,0.5-0.3,1.2-0.5,1.9l-0.5,3.1h-3.4l1.2-7.7l-1.2-0.4l0.3-1.7h4.7l-0.4,2.3c0,0,0.1-0.2,0.3-0.4c0.2-0.3,0.4-0.5,0.7-0.8
			c0.3-0.3,0.6-0.6,1-0.9c0.4-0.3,0.8-0.4,1.3-0.4c0.2,0,0.3,0,0.4,0c0.1,0,0.3,0.1,0.4,0.1c0.1,0,0.2,0.1,0.3,0.1l-0.9,4.3h-1.9
			V420.5z"/>
		<path class="st11" d="M411.5,420.4l-1.1-0.3l0.3-2.1h4.2l0.9,5.1l0.1,1l1.6-3.8l-0.9-0.2l0.3-2.1h5.1l-0.3,2l-0.8,0.3l-3.7,7.6
			c-0.4,0.8-0.7,1.5-1.1,2c-0.3,0.5-0.7,1-1.1,1.3c-0.4,0.3-0.8,0.6-1.3,0.7c-0.5,0.1-1,0.2-1.6,0.2c-0.3,0-0.6,0-0.9-0.1
			s-0.6-0.1-0.8-0.1c-0.3-0.1-0.6-0.1-0.8-0.2l0.7-2.4c0.1,0,0.3,0,0.4,0c0.1,0,0.3,0,0.4,0c0.2,0,0.3,0,0.5,0c0.3,0,0.5,0,0.7,0
			c0.2,0,0.4-0.1,0.5-0.2c0.1-0.1,0.3-0.2,0.4-0.4c0.1-0.2,0.2-0.4,0.4-0.6L411.5,420.4z"/>
	</g>
	<g>
		<path class="st12" d="M328.2,495.2c-0.2,0-0.4-0.1-0.6-0.1c-0.2,0-0.5-0.1-0.9-0.1c-0.6,0-1,0.1-1.4,0.4c-0.4,0.3-0.7,0.7-0.9,1.1
			s-0.4,1-0.5,1.6c-0.1,0.6-0.2,1.1-0.2,1.7c0,0.8,0.2,1.4,0.6,1.8c0.4,0.4,0.8,0.6,1.4,0.6c0.7,0,1.3-0.1,1.8-0.4s0.9-0.5,1.3-0.7
			l1.3,2c-0.2,0.2-0.5,0.4-0.8,0.6s-0.7,0.5-1.2,0.7c-0.4,0.2-0.9,0.4-1.5,0.6c-0.5,0.2-1.1,0.2-1.7,0.2c-0.7,0-1.4-0.1-2-0.3
			s-1.1-0.6-1.6-1c-0.4-0.4-0.8-0.9-1-1.5c-0.2-0.6-0.4-1.3-0.4-2c0-1.2,0.2-2.4,0.5-3.4s0.8-1.9,1.4-2.7c0.6-0.7,1.4-1.3,2.2-1.7
			c0.9-0.4,1.8-0.6,2.9-0.6c0.6,0,1.1,0,1.6,0.1c0.5,0.1,0.9,0.2,1.3,0.3c0.4,0.1,0.8,0.3,1.2,0.4l-0.6,3.8h-1.9L328.2,495.2z"/>
		<path class="st12" d="M341.6,503l-0.3,2H337l0.5-2c-0.3,0.4-0.6,0.8-1,1.1c-0.3,0.3-0.7,0.5-1.2,0.8c-0.5,0.2-1,0.4-1.5,0.4
			c-0.5,0-0.9-0.1-1.2-0.3c-0.3-0.2-0.6-0.4-0.8-0.7c-0.2-0.3-0.4-0.7-0.5-1.1c-0.1-0.4-0.2-0.8-0.2-1.3c0-1.2,0.2-2.2,0.5-3
			c0.3-0.9,0.7-1.6,1.2-2.1c0.5-0.6,1.1-1,1.8-1.3s1.4-0.4,2.1-0.4c0.3,0,0.6,0,0.9,0.1c0.3,0.1,0.5,0.2,0.7,0.3
			c0.2,0.1,0.4,0.2,0.6,0.3l0.4-0.5h2.2l-1.2,7.6L341.6,503z M337.8,497.7c-0.1,0-0.2-0.1-0.3-0.1c-0.1,0-0.2,0-0.3-0.1
			s-0.3,0-0.4,0c-0.4,0-0.7,0.1-1,0.4c-0.3,0.3-0.5,0.6-0.7,1c-0.2,0.4-0.3,0.8-0.4,1.3s-0.1,0.9-0.1,1.3c0,0.3,0.1,0.6,0.2,0.8
			c0.1,0.2,0.3,0.3,0.5,0.3c0.2,0,0.4-0.1,0.5-0.2c0.2-0.1,0.3-0.2,0.5-0.4c0.1-0.2,0.3-0.4,0.4-0.6s0.2-0.5,0.3-0.7
			c0.2-0.6,0.4-1.2,0.6-1.9L337.8,497.7z"/>
		<path class="st12" d="M344.8,502.6c0.1,0,0.2,0.1,0.3,0.1c0.2,0.1,0.5,0.1,0.8,0.1c0.4,0,0.6-0.1,0.8-0.2s0.3-0.3,0.3-0.4
			c0-0.2-0.1-0.4-0.3-0.5c-0.2-0.2-0.4-0.3-0.7-0.5c-0.3-0.2-0.6-0.3-0.9-0.5c-0.3-0.2-0.6-0.4-0.9-0.6c-0.3-0.2-0.5-0.5-0.7-0.8
			c-0.2-0.3-0.3-0.7-0.3-1.1c0-0.6,0.1-1.1,0.3-1.5c0.2-0.4,0.5-0.7,0.9-1c0.4-0.3,0.9-0.5,1.4-0.6c0.5-0.1,1.1-0.2,1.8-0.2
			c0.5,0,0.9,0,1.3,0.1c0.4,0.1,0.8,0.1,1.1,0.2c0.4,0.1,0.7,0.2,1,0.3l-0.6,3h-1.9l-0.1-0.9c-0.1,0-0.2,0-0.3-0.1
			c-0.1,0-0.2,0-0.3-0.1c-0.1,0-0.2,0-0.4,0c-0.3,0-0.5,0.1-0.6,0.2c-0.1,0.1-0.2,0.3-0.2,0.4c0,0.2,0.1,0.4,0.3,0.5
			c0.2,0.1,0.4,0.3,0.7,0.4c0.3,0.1,0.6,0.3,0.9,0.4c0.3,0.2,0.6,0.4,0.9,0.6c0.3,0.2,0.5,0.5,0.7,0.8c0.2,0.3,0.3,0.7,0.3,1.1
			c0,0.6-0.1,1.1-0.4,1.5c-0.2,0.4-0.6,0.8-1,1.1c-0.4,0.3-0.9,0.5-1.5,0.6c-0.6,0.1-1.2,0.2-1.9,0.2c-0.5,0-0.9,0-1.3-0.1
			c-0.4,0-0.8-0.1-1.1-0.2c-0.4-0.1-0.8-0.1-1.1-0.2l0.5-3.1h2L344.8,502.6z"/>
		<path class="st12" d="M363,503l-0.3,2h-4.3l0.5-2c-0.3,0.4-0.6,0.8-1,1.1c-0.3,0.3-0.7,0.5-1.2,0.8c-0.5,0.2-1,0.4-1.5,0.4
			c-0.5,0-0.9-0.1-1.2-0.3c-0.3-0.2-0.6-0.4-0.8-0.7c-0.2-0.3-0.4-0.7-0.5-1.1c-0.1-0.4-0.2-0.8-0.2-1.3c0-1.2,0.2-2.2,0.5-3
			c0.3-0.9,0.7-1.6,1.2-2.1c0.5-0.6,1.1-1,1.8-1.3s1.4-0.4,2.1-0.4c0.3,0,0.6,0,0.9,0.1c0.3,0.1,0.5,0.2,0.7,0.3
			c0.2,0.1,0.4,0.2,0.6,0.3l0.4-0.5h2.2l-1.2,7.6L363,503z M359.2,497.7c-0.1,0-0.2-0.1-0.3-0.1c-0.1,0-0.2,0-0.3-0.1s-0.3,0-0.4,0
			c-0.4,0-0.7,0.1-1,0.4c-0.3,0.3-0.5,0.6-0.7,1c-0.2,0.4-0.3,0.8-0.4,1.3s-0.1,0.9-0.1,1.3c0,0.3,0.1,0.6,0.2,0.8
			c0.1,0.2,0.3,0.3,0.5,0.3c0.2,0,0.4-0.1,0.5-0.2c0.2-0.1,0.3-0.2,0.5-0.4c0.1-0.2,0.3-0.4,0.4-0.6s0.2-0.5,0.3-0.7
			c0.2-0.6,0.4-1.2,0.6-1.9L359.2,497.7z"/>
		<path class="st12" d="M377.7,495.2c-0.2,0-0.4-0.1-0.6-0.1c-0.2,0-0.5-0.1-0.9-0.1c-0.6,0-1,0.1-1.4,0.4c-0.4,0.3-0.7,0.7-0.9,1.1
			s-0.4,1-0.5,1.6c-0.1,0.6-0.2,1.1-0.2,1.7c0,0.8,0.2,1.4,0.6,1.8c0.4,0.4,0.8,0.6,1.4,0.6c0.7,0,1.3-0.1,1.8-0.4s0.9-0.5,1.3-0.7
			l1.3,2c-0.2,0.2-0.5,0.4-0.8,0.6s-0.7,0.5-1.2,0.7c-0.4,0.2-0.9,0.4-1.5,0.6c-0.5,0.2-1.1,0.2-1.7,0.2c-0.7,0-1.4-0.1-2-0.3
			s-1.1-0.6-1.6-1c-0.4-0.4-0.8-0.9-1-1.5c-0.2-0.6-0.4-1.3-0.4-2c0-1.2,0.2-2.4,0.5-3.4s0.8-1.9,1.4-2.7c0.6-0.7,1.4-1.3,2.2-1.7
			c0.9-0.4,1.8-0.6,2.9-0.6c0.6,0,1.1,0,1.6,0.1c0.5,0.1,0.9,0.2,1.3,0.3c0.4,0.1,0.8,0.3,1.2,0.4l-0.6,3.8h-1.9L377.7,495.2z"/>
		<path class="st12" d="M391.1,503l-0.3,2h-4.3l0.5-2c-0.3,0.4-0.6,0.8-1,1.1c-0.3,0.3-0.7,0.5-1.2,0.8c-0.5,0.2-1,0.4-1.5,0.4
			c-0.5,0-0.9-0.1-1.2-0.3c-0.3-0.2-0.6-0.4-0.8-0.7c-0.2-0.3-0.4-0.7-0.5-1.1c-0.1-0.4-0.2-0.8-0.2-1.3c0-1.2,0.2-2.2,0.5-3
			c0.3-0.9,0.7-1.6,1.2-2.1c0.5-0.6,1.1-1,1.8-1.3s1.4-0.4,2.1-0.4c0.3,0,0.6,0,0.9,0.1c0.3,0.1,0.5,0.2,0.7,0.3
			c0.2,0.1,0.4,0.2,0.6,0.3l0.4-0.5h2.2l-1.2,7.6L391.1,503z M387.3,497.7c-0.1,0-0.2-0.1-0.3-0.1c-0.1,0-0.2,0-0.3-0.1
			s-0.3,0-0.4,0c-0.4,0-0.7,0.1-1,0.4c-0.3,0.3-0.5,0.6-0.7,1c-0.2,0.4-0.3,0.8-0.4,1.3s-0.1,0.9-0.1,1.3c0,0.3,0.1,0.6,0.2,0.8
			c0.1,0.2,0.3,0.3,0.5,0.3c0.2,0,0.4-0.1,0.5-0.2c0.2-0.1,0.3-0.2,0.5-0.4c0.1-0.2,0.3-0.4,0.4-0.6s0.2-0.5,0.3-0.7
			c0.2-0.6,0.4-1.2,0.6-1.9L387.3,497.7z"/>
		<path class="st12" d="M398.7,497.8c-0.1,0-0.3,0.1-0.5,0.2c-0.2,0.1-0.4,0.4-0.6,0.7c-0.2,0.3-0.4,0.8-0.6,1.3
			c-0.2,0.5-0.3,1.2-0.5,1.9l-0.5,3.1h-3.4l1.2-7.7l-1.2-0.4l0.3-1.7h4.7l-0.4,2.3c0,0,0.1-0.2,0.3-0.4c0.2-0.3,0.4-0.5,0.7-0.8
			c0.3-0.3,0.6-0.6,1-0.9c0.4-0.3,0.8-0.4,1.3-0.4c0.2,0,0.3,0,0.4,0c0.1,0,0.3,0.1,0.4,0.1c0.1,0,0.2,0.1,0.3,0.1l-0.9,4.3h-1.9
			V497.8z"/>
		<path class="st12" d="M412,503l-0.3,2h-4.3l0.5-2c-0.3,0.4-0.6,0.8-1,1.1c-0.3,0.3-0.7,0.5-1.2,0.8c-0.5,0.2-1,0.4-1.5,0.4
			c-0.5,0-0.9-0.1-1.2-0.3c-0.3-0.2-0.6-0.4-0.8-0.7c-0.2-0.3-0.4-0.7-0.5-1.1c-0.1-0.4-0.2-0.8-0.2-1.3c0-1.2,0.2-2.2,0.5-3
			c0.3-0.9,0.7-1.6,1.2-2.1c0.5-0.6,1.1-1,1.8-1.3s1.4-0.4,2.1-0.4c0.3,0,0.6,0,0.9,0.1c0.3,0.1,0.5,0.2,0.7,0.3
			c0.2,0.1,0.4,0.2,0.6,0.3l0.4-0.5h2.2l-1.2,7.6L412,503z M408.2,497.7c-0.1,0-0.2-0.1-0.3-0.1c-0.1,0-0.2,0-0.3-0.1s-0.3,0-0.4,0
			c-0.4,0-0.7,0.1-1,0.4c-0.3,0.3-0.5,0.6-0.7,1c-0.2,0.4-0.3,0.8-0.4,1.3s-0.1,0.9-0.1,1.3c0,0.3,0.1,0.6,0.2,0.8
			c0.1,0.2,0.3,0.3,0.5,0.3c0.2,0,0.4-0.1,0.5-0.2c0.2-0.1,0.3-0.2,0.5-0.4c0.1-0.2,0.3-0.4,0.4-0.6s0.2-0.5,0.3-0.7
			c0.2-0.6,0.4-1.2,0.6-1.9L408.2,497.7z"/>
		<path class="st12" d="M415.2,493.5l-1.2-0.4l0.3-2h4.6l-0.9,4.6l-0.5,1.7c0.3-0.4,0.6-0.8,0.9-1.2c0.3-0.3,0.7-0.6,1.1-0.8
			s0.9-0.4,1.5-0.4c0.4,0,0.8,0.1,1.2,0.3c0.3,0.2,0.6,0.4,0.8,0.7c0.2,0.3,0.4,0.7,0.5,1.1s0.2,0.9,0.2,1.3c0,1.1-0.2,2.1-0.5,3
			c-0.3,0.9-0.8,1.6-1.4,2.1c-0.6,0.6-1.2,1-2,1.3c-0.7,0.3-1.5,0.4-2.3,0.4c-0.5,0-1.1,0-1.6-0.1s-1-0.1-1.4-0.2
			c-0.5-0.1-0.9-0.2-1.3-0.3L415.2,493.5z M417.3,502.5c0.1,0,0.2,0,0.3,0.1c0.1,0,0.2,0,0.3,0.1c0.1,0,0.2,0,0.3,0
			c0.4,0,0.7-0.1,0.9-0.4s0.5-0.6,0.7-0.9c0.2-0.4,0.3-0.8,0.4-1.2c0.1-0.4,0.1-0.8,0.1-1.2c0-0.3-0.1-0.6-0.2-0.8
			c-0.1-0.2-0.3-0.4-0.6-0.4c-0.2,0-0.3,0.1-0.5,0.2c-0.2,0.1-0.3,0.2-0.4,0.4s-0.2,0.4-0.4,0.6c-0.1,0.2-0.2,0.4-0.3,0.7
			c-0.2,0.5-0.4,1.2-0.5,1.8L417.3,502.5z"/>
		<path class="st12" d="M435.7,503l-0.3,2h-4.3l0.5-2c-0.3,0.4-0.6,0.8-1,1.1c-0.3,0.3-0.7,0.5-1.2,0.8c-0.5,0.2-1,0.4-1.5,0.4
			c-0.5,0-0.9-0.1-1.2-0.3c-0.3-0.2-0.6-0.4-0.8-0.7c-0.2-0.3-0.4-0.7-0.5-1.1c-0.1-0.4-0.2-0.8-0.2-1.3c0-1.2,0.2-2.2,0.5-3
			c0.3-0.9,0.7-1.6,1.2-2.1c0.5-0.6,1.1-1,1.8-1.3s1.4-0.4,2.1-0.4c0.3,0,0.6,0,0.9,0.1c0.3,0.1,0.5,0.2,0.7,0.3
			c0.2,0.1,0.4,0.2,0.6,0.3l0.4-0.5h2.2l-1.2,7.6L435.7,503z M431.9,497.7c-0.1,0-0.2-0.1-0.3-0.1c-0.1,0-0.2,0-0.3-0.1
			s-0.3,0-0.4,0c-0.4,0-0.7,0.1-1,0.4c-0.3,0.3-0.5,0.6-0.7,1c-0.2,0.4-0.3,0.8-0.4,1.3s-0.1,0.9-0.1,1.3c0,0.3,0.1,0.6,0.2,0.8
			c0.1,0.2,0.3,0.3,0.5,0.3c0.2,0,0.4-0.1,0.5-0.2c0.2-0.1,0.3-0.2,0.5-0.4c0.1-0.2,0.3-0.4,0.4-0.6s0.2-0.5,0.3-0.7
			c0.2-0.6,0.4-1.2,0.6-1.9L431.9,497.7z M429.6,494.2l-0.7-1.8l5.5-2.9l0.8,2.6L429.6,494.2z"/>
		<path class="st12" d="M438.9,502.6c0.1,0,0.2,0.1,0.3,0.1c0.2,0.1,0.5,0.1,0.8,0.1c0.4,0,0.6-0.1,0.8-0.2s0.3-0.3,0.3-0.4
			c0-0.2-0.1-0.4-0.3-0.5c-0.2-0.2-0.4-0.3-0.7-0.5c-0.3-0.2-0.6-0.3-0.9-0.5c-0.3-0.2-0.6-0.4-0.9-0.6c-0.3-0.2-0.5-0.5-0.7-0.8
			c-0.2-0.3-0.3-0.7-0.3-1.1c0-0.6,0.1-1.1,0.3-1.5c0.2-0.4,0.5-0.7,0.9-1c0.4-0.3,0.9-0.5,1.4-0.6c0.5-0.1,1.1-0.2,1.8-0.2
			c0.5,0,0.9,0,1.3,0.1c0.4,0.1,0.8,0.1,1.1,0.2c0.4,0.1,0.7,0.2,1,0.3l-0.6,3h-1.9l-0.1-0.9c-0.1,0-0.2,0-0.3-0.1
			c-0.1,0-0.2,0-0.3-0.1c-0.1,0-0.2,0-0.4,0c-0.3,0-0.5,0.1-0.6,0.2c-0.1,0.1-0.2,0.3-0.2,0.4c0,0.2,0.1,0.4,0.3,0.5
			c0.2,0.1,0.4,0.3,0.7,0.4c0.3,0.1,0.6,0.3,0.9,0.4c0.3,0.2,0.6,0.4,0.9,0.6c0.3,0.2,0.5,0.5,0.7,0.8c0.2,0.3,0.3,0.7,0.3,1.1
			c0,0.6-0.1,1.1-0.4,1.5c-0.2,0.4-0.6,0.8-1,1.1c-0.4,0.3-0.9,0.5-1.5,0.6c-0.6,0.1-1.2,0.2-1.9,0.2c-0.5,0-0.9,0-1.3-0.1
			c-0.4,0-0.8-0.1-1.1-0.2c-0.4-0.1-0.8-0.1-1.1-0.2l0.5-3.1h2L438.9,502.6z"/>
	</g>
	<g>
		<path class="st13" d="M233.7,97.5c-0.2,0-0.4-0.1-0.6-0.1c-0.2,0-0.5-0.1-0.9-0.1c-0.6,0-1,0.1-1.4,0.4c-0.4,0.3-0.7,0.7-0.9,1.1
			c-0.2,0.5-0.4,1-0.5,1.6c-0.1,0.6-0.2,1.1-0.2,1.7c0,0.8,0.2,1.4,0.6,1.8s0.8,0.6,1.4,0.6c0.7,0,1.3-0.1,1.8-0.4
			c0.5-0.2,0.9-0.5,1.3-0.7l1.3,2c-0.2,0.2-0.5,0.4-0.8,0.6s-0.7,0.5-1.2,0.7s-0.9,0.4-1.5,0.6c-0.5,0.2-1.1,0.2-1.7,0.2
			c-0.7,0-1.4-0.1-2-0.3c-0.6-0.2-1.1-0.6-1.6-1c-0.4-0.4-0.8-0.9-1-1.5c-0.2-0.6-0.4-1.3-0.4-2c0-1.2,0.2-2.4,0.5-3.4
			c0.3-1,0.8-1.9,1.4-2.7c0.6-0.7,1.4-1.3,2.2-1.7c0.9-0.4,1.8-0.6,2.9-0.6c0.6,0,1.1,0,1.6,0.1c0.5,0.1,0.9,0.2,1.3,0.3
			c0.4,0.1,0.8,0.3,1.2,0.4l-0.6,3.8h-1.9L233.7,97.5z"/>
		<path class="st13" d="M247.1,105.3l-0.3,2h-4.3l0.5-2c-0.3,0.4-0.6,0.8-1,1.1c-0.3,0.3-0.7,0.5-1.2,0.8c-0.5,0.2-1,0.4-1.5,0.4
			c-0.5,0-0.9-0.1-1.2-0.3c-0.3-0.2-0.6-0.4-0.8-0.7c-0.2-0.3-0.4-0.7-0.5-1.1c-0.1-0.4-0.2-0.8-0.2-1.3c0-1.2,0.2-2.2,0.5-3
			c0.3-0.9,0.7-1.6,1.2-2.1c0.5-0.6,1.1-1,1.8-1.3s1.4-0.4,2.1-0.4c0.3,0,0.6,0,0.9,0.1c0.3,0.1,0.5,0.2,0.7,0.3
			c0.2,0.1,0.4,0.2,0.6,0.3l0.4-0.5h2.2l-1.2,7.6L247.1,105.3z M243.3,100c-0.1,0-0.2-0.1-0.3-0.1c-0.1,0-0.2,0-0.3-0.1
			c-0.1,0-0.3,0-0.4,0c-0.4,0-0.7,0.1-1,0.4c-0.3,0.3-0.5,0.6-0.7,1s-0.3,0.8-0.4,1.3s-0.1,0.9-0.1,1.3c0,0.3,0.1,0.6,0.2,0.8
			c0.1,0.2,0.3,0.3,0.5,0.3c0.2,0,0.4-0.1,0.5-0.2s0.3-0.2,0.5-0.4c0.1-0.2,0.3-0.4,0.4-0.6c0.1-0.2,0.2-0.5,0.3-0.7
			c0.2-0.6,0.4-1.2,0.6-1.9L243.3,100z"/>
		<path class="st13" d="M250.3,104.9c0.1,0,0.2,0.1,0.3,0.1c0.2,0.1,0.5,0.1,0.8,0.1c0.4,0,0.6-0.1,0.8-0.2c0.2-0.1,0.3-0.3,0.3-0.4
			c0-0.2-0.1-0.4-0.3-0.5c-0.2-0.2-0.4-0.3-0.7-0.5s-0.6-0.3-0.9-0.5c-0.3-0.2-0.6-0.4-0.9-0.6c-0.3-0.2-0.5-0.5-0.7-0.8
			c-0.2-0.3-0.3-0.7-0.3-1.1c0-0.6,0.1-1.1,0.3-1.5c0.2-0.4,0.5-0.7,0.9-1c0.4-0.3,0.9-0.5,1.4-0.6c0.5-0.1,1.1-0.2,1.8-0.2
			c0.5,0,0.9,0,1.3,0.1c0.4,0.1,0.8,0.1,1.1,0.2c0.4,0.1,0.7,0.2,1,0.3l-0.6,3h-1.9l-0.1-0.9c-0.1,0-0.2,0-0.3-0.1
			c-0.1,0-0.2,0-0.3-0.1c-0.1,0-0.2,0-0.4,0c-0.3,0-0.5,0.1-0.6,0.2c-0.1,0.1-0.2,0.3-0.2,0.4c0,0.2,0.1,0.4,0.3,0.5
			c0.2,0.1,0.4,0.3,0.7,0.4c0.3,0.1,0.6,0.3,0.9,0.4c0.3,0.2,0.6,0.4,0.9,0.6c0.3,0.2,0.5,0.5,0.7,0.8c0.2,0.3,0.3,0.7,0.3,1.1
			c0,0.6-0.1,1.1-0.4,1.5c-0.2,0.4-0.6,0.8-1,1.1c-0.4,0.3-0.9,0.5-1.5,0.6c-0.6,0.1-1.2,0.2-1.9,0.2c-0.5,0-0.9,0-1.3-0.1
			c-0.4,0-0.8-0.1-1.1-0.2c-0.4-0.1-0.8-0.1-1.1-0.2l0.5-3.1h2L250.3,104.9z"/>
		<path class="st13" d="M268.5,105.3l-0.3,2h-4.3l0.5-2c-0.3,0.4-0.6,0.8-1,1.1c-0.3,0.3-0.7,0.5-1.2,0.8c-0.5,0.2-1,0.4-1.5,0.4
			c-0.5,0-0.9-0.1-1.2-0.3c-0.3-0.2-0.6-0.4-0.8-0.7c-0.2-0.3-0.4-0.7-0.5-1.1c-0.1-0.4-0.2-0.8-0.2-1.3c0-1.2,0.2-2.2,0.5-3
			c0.3-0.9,0.7-1.6,1.2-2.1c0.5-0.6,1.1-1,1.8-1.3s1.4-0.4,2.1-0.4c0.3,0,0.6,0,0.9,0.1c0.3,0.1,0.5,0.2,0.7,0.3
			c0.2,0.1,0.4,0.2,0.6,0.3l0.4-0.5h2.2l-1.2,7.6L268.5,105.3z M264.7,100c-0.1,0-0.2-0.1-0.3-0.1c-0.1,0-0.2,0-0.3-0.1
			c-0.1,0-0.3,0-0.4,0c-0.4,0-0.7,0.1-1,0.4c-0.3,0.3-0.5,0.6-0.7,1s-0.3,0.8-0.4,1.3s-0.1,0.9-0.1,1.3c0,0.3,0.1,0.6,0.2,0.8
			c0.1,0.2,0.3,0.3,0.5,0.3c0.2,0,0.4-0.1,0.5-0.2s0.3-0.2,0.5-0.4c0.1-0.2,0.3-0.4,0.4-0.6c0.1-0.2,0.2-0.5,0.3-0.7
			c0.2-0.6,0.4-1.2,0.6-1.9L264.7,100z"/>
		<path class="st13" d="M279.7,107.4h-5.8l0.3-2.1l1.2-0.5l1.2-7.4l-1-0.7l0.3-2h4.7h1.5c1.2,0,2.1,0.3,2.8,0.9
			c0.7,0.6,1.1,1.4,1.1,2.4c0,0.8-0.1,1.6-0.4,2.3c-0.3,0.7-0.7,1.2-1.2,1.7c-0.5,0.5-1.2,0.8-1.9,1c-0.7,0.2-1.6,0.4-2.5,0.4h-0.7
			l-0.3,1.5l1,0.5L279.7,107.4z M279.7,100.5h0.7c0.6,0,1.1-0.2,1.4-0.5c0.3-0.3,0.5-0.8,0.5-1.4c0-0.4-0.1-0.7-0.3-0.9
			c-0.2-0.2-0.5-0.3-0.9-0.3h-1L279.7,100.5z"/>
		<path class="st13" d="M295.4,100.1c0,0.5-0.1,1-0.4,1.4c-0.2,0.4-0.6,0.8-1.1,1.1c-0.5,0.3-1.1,0.6-1.9,0.7
			c-0.8,0.2-1.7,0.3-2.7,0.3c0,0.4,0.2,0.7,0.4,0.9c0.3,0.2,0.6,0.3,1,0.3c0.4,0,0.8-0.1,1.3-0.2c0.4-0.1,0.9-0.2,1.2-0.4l1,1.8
			c-0.3,0.2-0.6,0.4-0.9,0.5c-0.3,0.2-0.7,0.3-1.1,0.5c-0.4,0.1-0.8,0.2-1.2,0.3c-0.4,0.1-0.8,0.1-1.3,0.1c-0.6,0-1.1-0.1-1.6-0.2
			c-0.5-0.1-0.9-0.4-1.2-0.7s-0.6-0.7-0.8-1.1c-0.2-0.4-0.3-1-0.3-1.5c0-1,0.1-2,0.5-2.8c0.3-0.8,0.7-1.5,1.2-2.1s1.1-1,1.8-1.3
			c0.7-0.3,1.4-0.5,2.2-0.5c1.2,0,2.2,0.3,2.8,0.7S295.4,99.2,295.4,100.1z M291.9,100.6c0-0.4-0.2-0.6-0.7-0.6
			c-0.4,0-0.8,0.2-1,0.5s-0.5,0.7-0.6,1.2c0.5,0,0.9,0,1.2-0.1c0.3-0.1,0.5-0.2,0.7-0.3c0.2-0.1,0.3-0.2,0.3-0.3
			S291.9,100.7,291.9,100.6z"/>
		<path class="st13" d="M302.7,100.1c-0.1,0-0.3,0.1-0.5,0.2s-0.4,0.4-0.6,0.7c-0.2,0.3-0.4,0.8-0.6,1.3c-0.2,0.5-0.3,1.2-0.5,1.9
			l-0.5,3.1h-3.4l1.2-7.7l-1.2-0.4l0.3-1.7h4.7l-0.4,2.3c0,0,0.1-0.2,0.3-0.4c0.2-0.3,0.4-0.5,0.7-0.8c0.3-0.3,0.6-0.6,1-0.9
			c0.4-0.3,0.8-0.4,1.3-0.4c0.2,0,0.3,0,0.4,0c0.1,0,0.3,0.1,0.4,0.1c0.1,0,0.2,0.1,0.3,0.1l-0.9,4.3h-1.9V100.1z"/>
		<path class="st13" d="M311.4,93.4l-1.9,11.6l1.2,0.3l-0.3,2h-4.7l1.9-11.5l-1.2-0.4l0.3-2H311.4z"/>
		<path class="st13" d="M323.2,105.3l-0.3,2h-4.3l0.5-2c-0.3,0.4-0.6,0.8-1,1.1c-0.3,0.3-0.7,0.5-1.2,0.8c-0.5,0.2-1,0.4-1.5,0.4
			c-0.5,0-0.9-0.1-1.2-0.3c-0.3-0.2-0.6-0.4-0.8-0.7c-0.2-0.3-0.4-0.7-0.5-1.1c-0.1-0.4-0.2-0.8-0.2-1.3c0-1.2,0.2-2.2,0.5-3
			c0.3-0.9,0.7-1.6,1.2-2.1c0.5-0.6,1.1-1,1.8-1.3s1.4-0.4,2.1-0.4c0.3,0,0.6,0,0.9,0.1c0.3,0.1,0.5,0.2,0.7,0.3
			c0.2,0.1,0.4,0.2,0.6,0.3l0.4-0.5h2.2l-1.2,7.6L323.2,105.3z M319.4,100c-0.1,0-0.2-0.1-0.3-0.1c-0.1,0-0.2,0-0.3-0.1
			c-0.1,0-0.3,0-0.4,0c-0.4,0-0.7,0.1-1,0.4c-0.3,0.3-0.5,0.6-0.7,1s-0.3,0.8-0.4,1.3s-0.1,0.9-0.1,1.3c0,0.3,0.1,0.6,0.2,0.8
			c0.1,0.2,0.3,0.3,0.5,0.3c0.2,0,0.4-0.1,0.5-0.2s0.3-0.2,0.5-0.4c0.1-0.2,0.3-0.4,0.4-0.6c0.1-0.2,0.2-0.5,0.3-0.7
			c0.2-0.6,0.4-1.2,0.6-1.9L319.4,100z"/>
	</g>
	<path class="st10" d="M507.3,354.8c-9.3,0-16.8,7.5-16.8,16.8c-0.1,13.5,16.2,24.8,16.8,25.2c0,0,16.9-11.7,16.8-25.2
		C524.1,362.3,516.5,354.8,507.3,354.8z M507.3,380c-4.6,0-8.4-3.8-8.4-8.4s3.8-8.4,8.4-8.4s8.4,3.8,8.4,8.4S511.9,380,507.3,380z"
		/>
	<path class="st11" d="M375.3,363.2c-9.3,0-16.8,7.5-16.8,16.8c-0.1,13.5,16.2,24.8,16.8,25.2c0,0,16.9-11.7,16.8-25.2
		C392.1,370.7,384.6,363.2,375.3,363.2z M375.3,388.4c-4.6,0-8.4-3.8-8.4-8.4c0-4.6,3.8-8.4,8.4-8.4s8.4,3.8,8.4,8.4
		C383.7,384.6,379.9,388.4,375.3,388.4z"/>
	<path class="st13" d="M318.9,44.2c-9.3,0-16.8,7.5-16.8,16.8c-0.1,13.5,16.2,24.8,16.8,25.2c0,0,16.9-11.7,16.8-25.2
		C335.7,51.7,328.2,44.2,318.9,44.2z M318.9,69.4c-4.6,0-8.4-3.8-8.4-8.4s3.8-8.4,8.4-8.4c4.6,0,8.4,3.8,8.4,8.4
		S323.5,69.4,318.9,69.4z"/>
	<path class="st12" d="M381.4,442.3c-9.3,0-16.8,7.5-16.8,16.8c-0.1,13.5,16.2,24.8,16.8,25.2c0,0,16.9-11.7,16.8-25.2
		C398.1,449.8,390.6,442.3,381.4,442.3z M381.4,467.5c-4.6,0-8.4-3.8-8.4-8.4c0-4.6,3.8-8.4,8.4-8.4s8.4,3.8,8.4,8.4
		C389.8,463.7,386,467.5,381.4,467.5z"/>
	<path class="st14" d="M563.2,333.5l15.4,3.4c0.2,0,0.4,0,0.6-0.1c0.1-0.1,0.3-0.2,0.4-0.3c0.2-0.3,0.3-0.7,0.2-1l-6.9-16.6
		c-0.1-0.3-0.5-0.6-0.8-0.6c-0.4,0-0.7,0.1-0.9,0.5l-8.6,13.3c-0.2,0.3-0.2,0.6-0.1,0.9C562.6,333.2,562.9,333.5,563.2,333.5z"/>
</g>
</svg>
